<svg width="1393" height="1261" viewBox="0 0 1393 1261" fill="none" xmlns="http://www.w3.org/2000/svg">
<mask id="path-1-inside-1_20_37" fill="white">
<path d="M982.077 392.94C1003.9 376.023 1008.1 344.316 988.315 325.049C961.776 299.201 931.188 277.377 897.343 260.226C848.274 235.36 793.32 220.804 735.617 217.389C677.915 213.973 618.593 221.765 561.041 240.32C503.488 258.874 448.832 287.828 400.191 325.528C351.551 363.228 309.879 408.935 277.556 460.04C245.233 511.146 222.891 566.649 211.806 623.38C200.721 680.11 201.11 736.959 212.95 790.678C221.117 827.732 234.622 862.796 253.033 894.943C266.757 918.906 298.508 922.753 320.334 905.836L651.205 649.388L982.077 392.94Z"/>
</mask>
<path d="M982.077 392.94C1003.9 376.023 1008.1 344.316 988.315 325.049C961.776 299.201 931.188 277.377 897.343 260.226C848.274 235.36 793.32 220.804 735.617 217.389C677.915 213.973 618.593 221.765 561.041 240.32C503.488 258.874 448.832 287.828 400.191 325.528C351.551 363.228 309.879 408.935 277.556 460.04C245.233 511.146 222.891 566.649 211.806 623.38C200.721 680.11 201.11 736.959 212.95 790.678C221.117 827.732 234.622 862.796 253.033 894.943C266.757 918.906 298.508 922.753 320.334 905.836L651.205 649.388L982.077 392.94Z" fill="#2E7D32" stroke="#2E7D32" stroke-width="26" mask="url(#path-1-inside-1_20_37)"/>
<line x1="412.695" y1="336.413" x2="372.931" y2="285.109" stroke="#2E7D32" stroke-width="15"/>
<line x1="7.5" y1="-7.5" x2="120.886" y2="-7.5" transform="matrix(0.797205 -0.603708 0.600953 0.799285 321.757 327.93)" stroke="#2E7D32" stroke-width="15" stroke-linecap="round"/>
<path d="M537.148 332.213C537.148 332.213 597.016 300.014 687.083 284.651C777.151 269.288 826.69 316.899 826.69 316.899" stroke="white" stroke-width="10"/>
<path d="M603.086 349.755C603.086 349.755 608.467 336.905 698.534 321.542C788.601 306.179 784.008 346.825 784.008 346.825" stroke="white" stroke-width="10"/>
<path d="M714 837.5C742.91 837.5 765.5 860.123 765.5 887C765.5 913.877 742.91 936.5 714 936.5C685.09 936.5 662.5 913.877 662.5 887C662.5 860.123 685.09 837.5 714 837.5Z" fill="white" stroke="#2E7D32" stroke-width="33"/>
<path d="M1026 837.5C1054.91 837.5 1077.5 860.123 1077.5 887C1077.5 913.877 1054.91 936.5 1026 936.5C997.09 936.5 974.5 913.877 974.5 887C974.5 860.123 997.09 837.5 1026 837.5Z" fill="white" stroke="#2E7D32" stroke-width="33"/>
<line x1="587.5" y1="506.5" x2="1128.78" y2="506.5" stroke="#2E7D32" stroke-width="35" stroke-linecap="round"/>
<line x1="467.5" y1="603.5" x2="1008.78" y2="603.5" stroke="#2E7D32" stroke-width="35" stroke-linecap="round"/>
<line x1="423.5" y1="677.5" x2="797.04" y2="677.5" stroke="#2E7D32" stroke-width="35" stroke-linecap="round"/>
<line x1="390.5" y1="774.5" x2="764.04" y2="774.5" stroke="#2E7D32" stroke-width="35" stroke-linecap="round"/>
<line x1="1135.37" y1="622.316" x2="1363.46" y2="620.63" stroke="#2E7D32" stroke-width="35" stroke-linecap="round"/>
<line x1="1135.5" y1="903.304" x2="1128.5" y2="500.304" stroke="#2E7D32" stroke-width="35"/>
<path d="M752.5 886.5L987 886.499" stroke="#2E7D32" stroke-width="35"/>
<path d="M570 887L660.5 885.932" stroke="#2E7D32" stroke-width="35" stroke-linecap="round"/>
<path d="M1086.4 886.958L1329.71 881.369" stroke="#2E7D32" stroke-width="35" stroke-linecap="round"/>
<rect x="1146" y="603" width="247" height="300" rx="50" fill="#2E7D32"/>
<rect x="1180" y="675" width="201" height="83" rx="41.5" fill="white"/>
</svg>
